<?xml version="1.0" encoding="UTF-8"?>
<svg id="b" data-name="Layer 2" xmlns="http://www.w3.org/2000/svg" viewBox="0 0 365.3 157.02">
  <defs>
    <style>
      .d {
        fill: #a07f56;
      }
    </style>
  </defs>
  <g id="c" data-name="Layer 1">
    <g>
      <path class="d" d="M26.6,1.26c2.01,0,4.15.17,6.44.52,2.29.35,4.11.88,5.46,1.58.42.14.69.31.81.52.12.21.2.57.24,1.08l.84,9.1c0,.09-.1.17-.31.25-.21.07-.36.01-.46-.18-1.35-3.64-3.4-6.42-6.12-8.33-2.73-1.91-5.94-2.87-9.62-2.87-3.31,0-6.12.79-8.44,2.38-2.31,1.59-4.08,3.79-5.32,6.61-1.24,2.82-1.85,6.1-1.85,9.84,0,3.27.44,6.32,1.33,9.17.89,2.85,2.12,5.34,3.71,7.49,1.59,2.15,3.45,3.83,5.6,5.04,2.15,1.21,4.48,1.82,7,1.82,3.08,0,5.82-.94,8.23-2.83,2.4-1.89,4.44-4.86,6.12-8.92.09-.19.26-.25.49-.17.23.07.35.15.35.24l-1.05,8.96c-.09.56-.2.92-.31,1.09-.12.16-.39.34-.81.52-2.15.84-4.32,1.46-6.51,1.85-2.19.4-4.34.59-6.44.59-4.48,0-8.33-.69-11.55-2.06-3.22-1.38-5.83-3.2-7.84-5.46-2.01-2.26-3.49-4.75-4.44-7.46-.96-2.71-1.44-5.37-1.44-7.98,0-3.41.71-6.49,2.13-9.24,1.42-2.75,3.35-5.11,5.77-7.07,2.43-1.96,5.19-3.46,8.29-4.51,3.1-1.05,6.34-1.58,9.7-1.58Z"/>
      <path class="d" d="M93.5,44.94c.19,0,.28.14.28.42s-.09.42-.28.42c-1.4,0-2.83-.05-4.31-.14-1.47-.09-2.88-.14-4.23-.14-1.54,0-2.88.05-4.02.14-1.14.09-2.42.14-3.81.14-.19,0-.28-.14-.28-.42s.09-.42.28-.42c2.1,0,3.36-.37,3.78-1.12.42-.75.07-2.22-1.05-4.41l-14.63-29.75,2.87-4.69-13.86,31.22c-1.21,2.85-1.25,5.02-.1,6.51,1.14,1.49,3.09,2.24,5.85,2.24.23,0,.35.14.35.42s-.12.42-.35.42c-1.4,0-2.68-.05-3.85-.14-1.17-.09-2.64-.14-4.41-.14s-3.19.05-4.23.14c-1.05.09-2.35.14-3.89.14-.19,0-.28-.14-.28-.42s.09-.42.28-.42c1.26,0,2.35-.26,3.26-.77.91-.51,1.81-1.46,2.69-2.83.89-1.38,1.87-3.3,2.94-5.78L67.53,1.61c.09-.14.3-.21.63-.21s.51.07.56.21l17.15,34.58c1.07,2.24,2.03,4,2.87,5.28.84,1.28,1.63,2.18,2.38,2.7.75.51,1.54.77,2.38.77ZM58.85,24.08l1.05-1.82h14.42l.49,1.82h-15.96Z"/>
      <path class="d" d="M103.15,3.5c-2.85,0-5.17.89-6.97,2.66-1.8,1.77-3.21,4.39-4.23,7.84,0,.14-.13.2-.38.17-.26-.02-.39-.08-.39-.17.09-.65.19-1.55.28-2.7.09-1.14.2-2.39.32-3.75.12-1.35.21-2.67.28-3.95.07-1.28.1-2.32.1-3.12,0-.23.13-.35.39-.35s.38.12.38.35c0,.47.25.81.73,1.02.49.21,1.04.35,1.65.42.61.07,1.12.1,1.54.1,4.01.14,8.7.21,14.07.21,3.31,0,5.94-.04,7.88-.1,1.94-.07,3.81-.1,5.63-.1,1.68,0,2.95-.1,3.81-.31.86-.21,1.41-.69,1.65-1.44.05-.19.19-.28.42-.28s.35.09.35.28c-.05.75-.12,1.76-.21,3.04-.09,1.28-.16,2.64-.21,4.06-.05,1.42-.09,2.73-.14,3.92-.05,1.19-.07,2.09-.07,2.7,0,.09-.13.14-.39.14s-.41-.05-.45-.14c-.51-3.69-1.63-6.36-3.36-8.02-1.73-1.66-4.04-2.48-6.93-2.48-1.26,0-2.22.12-2.87.35-.65.23-1.1.67-1.33,1.3-.23.63-.35,1.53-.35,2.69v32.27c0,1.35.15,2.38.46,3.08.3.7.89,1.17,1.75,1.4.86.23,2.18.35,3.96.35.14,0,.21.14.21.42s-.07.42-.21.42c-1.26,0-2.69-.02-4.31-.07-1.61-.05-3.37-.07-5.28-.07s-3.52.02-5.11.07c-1.59.05-3.06.07-4.41.07-.09,0-.14-.14-.14-.42s.05-.42.14-.42c1.77,0,3.1-.12,3.99-.35.89-.23,1.48-.7,1.79-1.4.3-.7.46-1.73.46-3.08V7.7c0-1.17-.1-2.04-.31-2.62-.21-.58-.64-.99-1.3-1.23-.65-.23-1.61-.35-2.87-.35Z"/>
      <path class="d" d="M165.39,45.78h-30.38c-.14,0-.21-.14-.21-.42s.07-.42.21-.42c1.54,0,2.68-.12,3.43-.35.75-.23,1.25-.7,1.5-1.4.26-.7.38-1.73.38-3.08V7.7c0-1.35-.13-2.37-.38-3.04-.26-.68-.76-1.14-1.5-1.4-.75-.26-1.89-.39-3.43-.39-.14,0-.21-.14-.21-.42s.07-.42.21-.42h29.12c.47,0,.7.21.7.63l.14,9.1c0,.09-.12.15-.35.17-.23.02-.4-.03-.49-.17-.51-2.66-1.59-4.64-3.22-5.95-1.63-1.31-3.78-1.96-6.44-1.96h-2.87c-1.17,0-2.09.13-2.76.39-.68.26-1.16.68-1.44,1.26-.28.58-.42,1.37-.42,2.35v31.99c0,.98.13,1.79.38,2.42.26.63.67,1.07,1.23,1.33.56.26,1.35.39,2.38.39h3.43c3.17,0,5.74-.76,7.7-2.28,1.96-1.52,3.36-3.77,4.2-6.75.05-.14.2-.19.46-.14.26.05.38.12.38.21-.19,1.31-.35,2.87-.49,4.69-.14,1.82-.21,3.5-.21,5.04,0,.7-.35,1.05-1.05,1.05ZM161.47,29.96c0-1.96-.65-3.45-1.96-4.48-1.31-1.03-3.27-1.54-5.88-1.54h-9.8v-1.82h9.87c2.61,0,4.55-.44,5.81-1.33,1.26-.89,1.89-2.17,1.89-3.85,0-.14.13-.21.38-.21s.39.07.39.21c0,1.49-.01,2.66-.04,3.5-.02.84-.04,1.7-.04,2.59,0,1.12.04,2.23.1,3.33.07,1.1.11,2.3.11,3.6,0,.09-.14.14-.42.14s-.42-.05-.42-.14Z"/>
      <path class="d" d="M196.64,46.62c-5.27,0-9.79-.99-13.54-2.97-3.76-1.98-6.63-4.66-8.61-8.02-1.98-3.36-2.97-7.12-2.97-11.27,0-3.45.67-6.59,1.99-9.42,1.33-2.82,3.2-5.25,5.6-7.28,2.4-2.03,5.22-3.6,8.44-4.72,3.22-1.12,6.74-1.68,10.57-1.68,2.1,0,4.26.17,6.48.52,2.22.35,4.02.88,5.43,1.58.42.19.68.38.77.59.09.21.16.55.21,1.02l.84,9.1c0,.09-.12.17-.35.25-.23.07-.4.01-.49-.18-1.4-3.5-3.5-6.23-6.3-8.19-2.8-1.96-6.09-2.94-9.87-2.94-5.23,0-9.19,1.7-11.9,5.11-2.71,3.41-4.06,7.96-4.06,13.65,0,4.67.85,8.78,2.56,12.35,1.7,3.57,4.01,6.35,6.93,8.33,2.92,1.98,6.24,2.98,9.98,2.98,1.96,0,3.52-.21,4.69-.63,1.17-.42,2.02-1.24,2.55-2.45.54-1.21.81-3.01.81-5.39,0-2.24-.14-3.89-.42-4.94-.28-1.05-.92-1.74-1.93-2.06-1-.33-2.65-.49-4.94-.49-.28,0-.42-.19-.42-.56s.12-.56.35-.56c3.13.19,5.97.29,8.54.31,2.57.02,5.25-.03,8.05-.17.23,0,.35.16.35.49s-.12.49-.35.49c-.89-.05-1.54.1-1.96.46-.42.35-.68,1.11-.77,2.27-.09,1.17-.14,2.99-.14,5.46,0,1.54.05,2.68.14,3.43.09.75.18,1.29.25,1.65.07.35.1.71.1,1.08,0,.28-.06.47-.17.56-.12.09-.34.19-.67.28-2.52.56-5.15,1.03-7.88,1.4-2.73.37-5.35.56-7.88.56Z"/>
      <path class="d" d="M242.41,46.62c-3.36,0-6.41-.59-9.14-1.78s-5.06-2.83-7-4.94c-1.94-2.1-3.43-4.52-4.48-7.25-1.05-2.73-1.57-5.63-1.57-8.71,0-3.78.73-7.09,2.2-9.94,1.47-2.85,3.42-5.22,5.85-7.1,2.43-1.89,5.09-3.3,7.98-4.24,2.89-.93,5.76-1.4,8.61-1.4,3.45,0,6.55.62,9.28,1.85,2.73,1.24,5.05,2.91,6.96,5,1.91,2.1,3.37,4.48,4.38,7.14,1,2.66,1.5,5.39,1.5,8.19,0,3.27-.65,6.3-1.96,9.1-1.31,2.8-3.09,5.25-5.35,7.35-2.26,2.1-4.88,3.75-7.84,4.94-2.96,1.19-6.1,1.78-9.42,1.78ZM244.79,44.94c2.8,0,5.31-.75,7.52-2.24,2.22-1.49,3.97-3.7,5.25-6.61,1.28-2.92,1.93-6.45,1.93-10.6s-.7-8.19-2.1-11.55-3.41-6.01-6.02-7.94c-2.61-1.94-5.74-2.91-9.38-2.91-4.53,0-8.04,1.62-10.54,4.87-2.5,3.24-3.75,7.73-3.75,13.48,0,3.36.42,6.48,1.26,9.34.84,2.87,2.02,5.38,3.53,7.52,1.52,2.15,3.31,3.79,5.39,4.94,2.08,1.14,4.38,1.72,6.9,1.72Z"/>
      <path class="d" d="M287.77,1.82c4.15,0,7.35.78,9.59,2.34,2.24,1.56,3.36,3.72,3.36,6.48,0,1.77-.42,3.45-1.26,5.04-.84,1.59-1.96,2.99-3.36,4.2-1.4,1.21-3,2.17-4.79,2.87-1.8.7-3.65,1.05-5.56,1.05h-1.82c-.65,0-1.24-.02-1.75-.07v16.38c0,1.35.12,2.38.35,3.08.23.7.73,1.17,1.5,1.4.77.23,1.9.35,3.4.35.14,0,.21.14.21.42s-.07.42-.21.42c-1.17,0-2.47-.02-3.92-.07-1.45-.05-3.03-.07-4.76-.07-1.63,0-3.2.02-4.69.07-1.49.05-2.82.07-3.99.07-.14,0-.21-.14-.21-.42s.07-.42.21-.42c1.54,0,2.68-.12,3.43-.35.75-.23,1.26-.7,1.54-1.4.28-.7.42-1.73.42-3.08V7.7c0-1.35-.13-2.37-.39-3.04-.26-.68-.76-1.14-1.5-1.4-.75-.26-1.89-.39-3.43-.39-.09,0-.14-.14-.14-.42s.05-.42.14-.42c1.17,0,2.49.04,3.96.1,1.47.07,3.02.1,4.66.1,1.35,0,2.85-.07,4.48-.21,1.63-.14,3.15-.21,4.55-.21ZM293.79,13.23c0-2.66-.31-4.73-.94-6.2-.63-1.47-1.48-2.48-2.56-3.04-1.07-.56-2.31-.84-3.71-.84-1.07,0-1.94.13-2.59.38-.65.26-1.12.72-1.4,1.4-.28.68-.42,1.65-.42,2.91v13.93c.65.09,1.35.16,2.1.21.75.05,1.4.07,1.96.07,2.75,0,4.7-.63,5.85-1.89,1.14-1.26,1.71-3.57,1.71-6.93ZM304.78,45.78c-.7,0-1.87-.92-3.5-2.77-1.63-1.84-3.6-4.48-5.92-7.91-2.31-3.43-4.89-7.55-7.74-12.35l5.6-1.75c3.78,5.88,7.01,10.57,9.7,14.07,2.68,3.5,5.06,6.02,7.14,7.56,2.08,1.54,4.07,2.31,5.99,2.31.09,0,.14.14.14.42s-.05.42-.14.42h-11.27Z"/>
      <path class="d" d="M329.54,26.67l-11.27-17.22c-1.68-2.57-3.08-4.3-4.2-5.21-1.12-.91-2.19-1.37-3.22-1.37-.14,0-.21-.14-.21-.42s.07-.42.21-.42c.75,0,1.52.04,2.31.1.79.07,1.54.1,2.24.1,1.31,0,2.65-.01,4.03-.04,1.38-.02,2.68-.06,3.92-.1,1.24-.05,2.27-.07,3.11-.07.09,0,.14.14.14.42s-.05.42-.14.42c-1.54,0-2.47.4-2.8,1.19-.33.79-.07,1.8.77,3.01l10.71,16.45-5.6,3.15ZM328.98,24.08l6.65-.63v16.66c0,1.35.12,2.38.35,3.08.23.7.72,1.17,1.47,1.4.75.23,1.89.35,3.43.35.14,0,.21.14.21.42s-.07.42-.21.42c-1.17,0-2.46-.02-3.89-.07-1.42-.05-3-.07-4.73-.07-1.63,0-3.21.02-4.73.07-1.52.05-2.86.07-4.02.07-.09,0-.14-.14-.14-.42s.05-.42.14-.42c1.54,0,2.7-.12,3.47-.35.77-.23,1.29-.7,1.57-1.4.28-.7.42-1.73.42-3.08v-16.03ZM332.48,26.11l9.24-15.19c1.49-2.43,2.06-4.38,1.71-5.85-.35-1.47-1.62-2.21-3.81-2.21-.09,0-.14-.14-.14-.42s.05-.42.14-.42c1.45,0,2.8.04,4.06.1,1.26.07,2.92.1,4.97.1,1.17,0,2.11-.04,2.84-.1.72-.07,1.6-.1,2.62-.1.09,0,.14.14.14.42s-.05.42-.14.42c-.98,0-2.1.36-3.36,1.08-1.26.72-2.5,1.73-3.71,3.01-1.21,1.28-2.36,2.79-3.43,4.52l-9.73,15.75-1.4-1.12Z"/>
      <path class="d" d="M22.89,101.62c-3.36,0-6.41-.59-9.14-1.78s-5.06-2.83-7-4.94c-1.94-2.1-3.43-4.52-4.48-7.25-1.05-2.73-1.57-5.63-1.57-8.71,0-3.78.73-7.09,2.2-9.94,1.47-2.85,3.42-5.22,5.85-7.1,2.43-1.89,5.09-3.3,7.98-4.24,2.89-.93,5.76-1.4,8.61-1.4,3.45,0,6.55.62,9.28,1.85,2.73,1.24,5.05,2.91,6.96,5,1.91,2.1,3.37,4.48,4.38,7.14,1,2.66,1.5,5.39,1.5,8.19,0,3.27-.65,6.3-1.96,9.1-1.31,2.8-3.09,5.25-5.35,7.35-2.26,2.1-4.88,3.75-7.84,4.94-2.96,1.19-6.1,1.78-9.42,1.78ZM25.27,99.94c2.8,0,5.31-.75,7.52-2.24,2.22-1.49,3.97-3.7,5.25-6.61,1.28-2.92,1.93-6.45,1.93-10.6s-.7-8.19-2.1-11.55-3.41-6.01-6.02-7.94c-2.61-1.94-5.74-2.91-9.38-2.91-4.53,0-8.04,1.62-10.54,4.87-2.5,3.24-3.75,7.73-3.75,13.48,0,3.36.42,6.48,1.26,9.34.84,2.87,2.02,5.38,3.53,7.52,1.52,2.15,3.31,3.79,5.39,4.94,2.08,1.14,4.38,1.72,6.9,1.72Z"/>
      <path class="d" d="M50.38,100.78c-.14,0-.21-.14-.21-.42s.07-.42.21-.42c1.63,0,2.85-.12,3.64-.35.79-.23,1.33-.7,1.61-1.4.28-.7.42-1.73.42-3.08v-32.41c0-1.35-.13-2.37-.38-3.04-.26-.68-.76-1.14-1.5-1.4-.75-.26-1.89-.39-3.43-.39-.14,0-.21-.14-.21-.42s.07-.42.21-.42h29.12c.47,0,.7.21.7.63l.14,9.1c0,.09-.12.15-.35.17-.23.02-.4-.03-.49-.17-.51-2.66-1.59-4.64-3.22-5.95-1.63-1.31-3.78-1.96-6.44-1.96h-2.87c-1.73,0-2.93.3-3.6.91-.68.61-1.01,1.61-1.01,3.01v32.06c0,1.4.19,2.46.56,3.19.37.72,1.12,1.23,2.24,1.51,1.12.28,2.8.42,5.04.42.09,0,.14.14.14.42s-.05.42-.14.42c-1.59,0-3.29-.02-5.11-.07-1.82-.05-3.9-.07-6.23-.07-1.63,0-3.22.02-4.76.07-1.54.05-2.89.07-4.06.07ZM76.35,85.73c0-1.91-.67-3.38-2-4.41-1.33-1.03-3.35-1.54-6.06-1.54h-8.75v-1.82h8.89c2.66,0,4.63-.46,5.92-1.37,1.28-.91,1.93-2.21,1.93-3.88,0-.09.14-.14.42-.14s.42.05.42.14c0,1.54-.01,2.73-.04,3.57-.02.84-.04,1.7-.04,2.59,0,1.12.02,2.23.07,3.33.05,1.1.07,2.27.07,3.54,0,.14-.14.21-.42.21s-.42-.07-.42-.21Z"/>
      <path class="d" d="M124.65,101.62c-3.36,0-6.41-.59-9.14-1.78s-5.06-2.83-7-4.94c-1.94-2.1-3.43-4.52-4.48-7.25-1.05-2.73-1.57-5.63-1.57-8.71,0-3.78.73-7.09,2.2-9.94,1.47-2.85,3.42-5.22,5.85-7.1,2.43-1.89,5.09-3.3,7.98-4.24,2.89-.93,5.76-1.4,8.61-1.4,3.45,0,6.55.62,9.28,1.85,2.73,1.24,5.05,2.91,6.96,5,1.91,2.1,3.37,4.48,4.38,7.14,1,2.66,1.5,5.39,1.5,8.19,0,3.27-.65,6.3-1.96,9.1-1.31,2.8-3.09,5.25-5.35,7.35-2.26,2.1-4.88,3.75-7.84,4.94-2.96,1.19-6.1,1.78-9.42,1.78ZM127.03,99.94c2.8,0,5.31-.75,7.52-2.24,2.22-1.49,3.97-3.7,5.25-6.61,1.28-2.92,1.93-6.45,1.93-10.6s-.7-8.19-2.1-11.55-3.41-6.01-6.02-7.94c-2.61-1.94-5.74-2.91-9.38-2.91-4.53,0-8.04,1.62-10.54,4.87-2.5,3.24-3.75,7.73-3.75,13.48,0,3.36.42,6.48,1.26,9.34.84,2.87,2.02,5.38,3.53,7.52,1.52,2.15,3.31,3.79,5.39,4.94,2.08,1.14,4.38,1.72,6.9,1.72Z"/>
      <path class="d" d="M193.61,101.76c0,.14-.12.22-.35.25-.23.02-.4.01-.49-.04l-33.67-39.2c-1.68-1.91-3.11-3.21-4.3-3.89-1.19-.68-2.35-1.02-3.47-1.02-.14,0-.21-.14-.21-.42s.07-.42.21-.42c.89,0,1.8.02,2.73.07.93.05,1.8.07,2.59.07,1.4,0,2.67-.02,3.81-.07,1.14-.05,2.02-.07,2.62-.07s1.05.27,1.33.81c.28.54.98,1.48,2.1,2.83l26.53,31.22.56,9.87ZM158.05,92.31v-33.67l1.89.14v33.53c0,2.47.49,4.36,1.47,5.67.98,1.31,2.38,1.96,4.2,1.96.14,0,.21.14.21.42s-.07.42-.21.42c-.98,0-2-.02-3.04-.07-1.05-.05-2.21-.07-3.47-.07-1.35,0-2.65.02-3.88.07-1.24.05-2.39.07-3.46.07-.14,0-.21-.14-.21-.42s.07-.42.21-.42c2.05,0,3.62-.65,4.69-1.96,1.07-1.31,1.61-3.2,1.61-5.67ZM193.61,65.57v36.19l-1.89-2.1v-34.09c0-2.47-.48-4.38-1.44-5.71-.96-1.33-2.37-2-4.23-2-.09,0-.14-.14-.14-.42s.05-.42.14-.42c.98,0,2.01.04,3.08.1,1.07.07,2.24.1,3.5.1s2.4-.04,3.57-.1c1.17-.07,2.24-.1,3.22-.1.14,0,.21.14.21.42s-.07.42-.21.42c-1.87,0-3.3.67-4.31,2-1,1.33-1.5,3.23-1.5,5.71Z"/>
      <path class="d" d="M233.68,100.78h-30.38c-.14,0-.21-.14-.21-.42s.07-.42.21-.42c1.54,0,2.68-.12,3.43-.35.75-.23,1.25-.7,1.5-1.4.26-.7.38-1.73.38-3.08v-32.41c0-1.35-.13-2.37-.38-3.04-.26-.68-.76-1.14-1.5-1.4-.75-.26-1.89-.39-3.43-.39-.14,0-.21-.14-.21-.42s.07-.42.21-.42h29.12c.47,0,.7.21.7.63l.14,9.1c0,.09-.12.15-.35.17-.23.02-.4-.03-.49-.17-.51-2.66-1.59-4.64-3.22-5.95-1.63-1.31-3.78-1.96-6.44-1.96h-2.87c-1.17,0-2.09.13-2.76.39-.68.26-1.16.68-1.44,1.26-.28.58-.42,1.37-.42,2.35v31.99c0,.98.13,1.79.38,2.42.26.63.67,1.07,1.23,1.33.56.26,1.35.39,2.38.39h3.43c3.17,0,5.74-.76,7.7-2.28,1.96-1.52,3.36-3.77,4.2-6.75.05-.14.2-.19.46-.14.26.05.38.12.38.21-.19,1.31-.35,2.87-.49,4.69-.14,1.82-.21,3.5-.21,5.04,0,.7-.35,1.05-1.05,1.05ZM229.76,84.96c0-1.96-.65-3.45-1.96-4.48-1.31-1.03-3.27-1.54-5.88-1.54h-9.8v-1.82h9.87c2.61,0,4.55-.44,5.81-1.33,1.26-.89,1.89-2.17,1.89-3.85,0-.14.13-.21.38-.21s.39.07.39.21c0,1.49-.01,2.66-.04,3.5-.02.84-.04,1.7-.04,2.59,0,1.12.04,2.23.1,3.33.07,1.1.11,2.3.11,3.6,0,.09-.14.14-.42.14s-.42-.05-.42-.14Z"/>
      <path class="d" d="M18.55,132.19l.77-1.12c3.03,0,5.68.51,7.95,1.54,2.26,1.03,4.02,2.44,5.28,4.23,1.26,1.8,1.89,3.86,1.89,6.19s-.67,4.63-2,6.62c-1.33,1.98-3.16,3.55-5.49,4.69-2.33,1.14-4.97,1.71-7.91,1.71-1.35,0-2.99-.07-4.9-.21-1.91-.14-3.66-.21-5.25-.21s-3.2.02-4.69.07c-1.49.05-2.82.07-3.99.07-.14,0-.21-.14-.21-.42s.07-.42.21-.42c1.45,0,2.56-.12,3.33-.35.77-.23,1.31-.7,1.61-1.4.3-.7.46-1.73.46-3.08v-32.41c0-1.35-.14-2.37-.42-3.04-.28-.68-.81-1.14-1.58-1.4-.77-.26-1.88-.39-3.33-.39-.09,0-.14-.14-.14-.42s.05-.42.14-.42c1.17,0,2.49.04,3.96.1,1.47.07,3.02.1,4.66.1,1.31,0,2.71-.07,4.2-.21,1.49-.14,2.92-.21,4.27-.21,2.8,0,5.15.36,7.04,1.08,1.89.72,3.33,1.76,4.31,3.12.98,1.35,1.47,2.99,1.47,4.9,0,2.61-1,4.94-3.01,6.96-2.01,2.03-4.88,3.46-8.61,4.31ZM16.17,113.22c-.93,0-1.69.12-2.27.35-.58.23-.99.68-1.23,1.33-.23.65-.35,1.63-.35,2.94v13.72l-2.52-.49c1.54.05,2.8.08,3.78.1.98.02,1.52.04,1.61.04,2.89,0,5.02-.93,6.37-2.8,1.35-1.87,2.03-4.15,2.03-6.86,0-1.73-.27-3.22-.8-4.48-.54-1.26-1.35-2.22-2.45-2.87-1.1-.65-2.48-.98-4.17-.98ZM17.92,154.45c3.31,0,5.72-.85,7.21-2.55,1.49-1.7,2.24-4.1,2.24-7.18,0-3.45-.9-6.28-2.7-8.47-1.8-2.19-4.51-3.29-8.15-3.29-.7,0-1.63.01-2.8.03-1.17.02-2.38.15-3.64.39l2.24-.84v17.57c0,.98.12,1.8.35,2.45.23.65.76,1.13,1.58,1.44.82.3,2.04.46,3.67.46Z"/>
      <path class="d" d="M55.29,111.82c4.15,0,7.35.78,9.59,2.34,2.24,1.56,3.36,3.72,3.36,6.48,0,1.77-.42,3.45-1.26,5.04-.84,1.59-1.96,2.99-3.36,4.2-1.4,1.21-3,2.17-4.79,2.87-1.8.7-3.65,1.05-5.56,1.05h-1.82c-.65,0-1.24-.02-1.75-.07v16.38c0,1.35.12,2.38.35,3.08.23.7.73,1.17,1.5,1.4.77.23,1.9.35,3.4.35.14,0,.21.14.21.42s-.07.42-.21.42c-1.17,0-2.47-.02-3.92-.07-1.45-.05-3.03-.07-4.76-.07-1.63,0-3.2.02-4.69.07-1.49.05-2.82.07-3.99.07-.14,0-.21-.14-.21-.42s.07-.42.21-.42c1.54,0,2.68-.12,3.43-.35.75-.23,1.26-.7,1.54-1.4.28-.7.42-1.73.42-3.08v-32.41c0-1.35-.13-2.37-.39-3.04-.26-.68-.76-1.14-1.5-1.4-.75-.26-1.89-.39-3.43-.39-.09,0-.14-.14-.14-.42s.05-.42.14-.42c1.17,0,2.49.04,3.96.1,1.47.07,3.02.1,4.66.1,1.35,0,2.85-.07,4.48-.21,1.63-.14,3.15-.21,4.55-.21ZM61.31,123.23c0-2.66-.31-4.73-.94-6.2-.63-1.47-1.48-2.48-2.56-3.04-1.07-.56-2.31-.84-3.71-.84-1.07,0-1.94.13-2.59.38-.65.26-1.12.72-1.4,1.4-.28.68-.42,1.65-.42,2.91v13.93c.65.09,1.35.16,2.1.21.75.05,1.4.07,1.96.07,2.75,0,4.7-.63,5.85-1.89,1.14-1.26,1.71-3.57,1.71-6.93ZM72.3,155.78c-.7,0-1.87-.92-3.5-2.77-1.63-1.84-3.6-4.48-5.92-7.91-2.31-3.43-4.89-7.55-7.74-12.35l5.6-1.75c3.78,5.88,7.01,10.57,9.7,14.07,2.68,3.5,5.06,6.02,7.14,7.56,2.08,1.54,4.07,2.31,5.99,2.31.09,0,.14.14.14.42s-.05.42-.14.42h-11.27Z"/>
      <path class="d" d="M135.15,154.94c.19,0,.28.14.28.42s-.09.42-.28.42c-1.4,0-2.83-.05-4.31-.14-1.47-.09-2.88-.14-4.23-.14-1.54,0-2.88.05-4.02.14-1.14.09-2.42.14-3.81.14-.19,0-.28-.14-.28-.42s.09-.42.28-.42c2.1,0,3.36-.37,3.78-1.12.42-.75.07-2.22-1.05-4.41l-14.63-29.75,2.87-4.69-13.86,31.22c-1.21,2.85-1.25,5.02-.1,6.51,1.14,1.49,3.09,2.24,5.85,2.24.23,0,.35.14.35.42s-.12.42-.35.42c-1.4,0-2.68-.05-3.85-.14-1.17-.09-2.64-.14-4.41-.14s-3.19.05-4.23.14c-1.05.09-2.35.14-3.89.14-.19,0-.28-.14-.28-.42s.09-.42.28-.42c1.26,0,2.35-.26,3.26-.77.91-.51,1.81-1.46,2.69-2.83.89-1.38,1.87-3.3,2.94-5.78l15.05-33.95c.09-.14.3-.21.63-.21s.51.07.56.21l17.15,34.58c1.07,2.24,2.03,4,2.87,5.28.84,1.28,1.63,2.18,2.38,2.7.75.51,1.54.77,2.38.77ZM100.5,134.08l1.05-1.82h14.42l.49,1.82h-15.96Z"/>
      <path class="d" d="M180.2,156.76c0,.14-.12.22-.35.25-.23.02-.4.01-.49-.04l-33.67-39.2c-1.68-1.91-3.11-3.21-4.3-3.89-1.19-.68-2.35-1.02-3.47-1.02-.14,0-.21-.14-.21-.42s.07-.42.21-.42c.89,0,1.8.02,2.73.07.93.05,1.8.07,2.59.07,1.4,0,2.67-.02,3.81-.07,1.14-.05,2.02-.07,2.62-.07s1.05.27,1.33.81c.28.54.98,1.48,2.1,2.83l26.53,31.22.56,9.87ZM144.64,147.31v-33.67l1.89.14v33.53c0,2.47.49,4.36,1.47,5.67.98,1.31,2.38,1.96,4.2,1.96.14,0,.21.14.21.42s-.07.42-.21.42c-.98,0-2-.02-3.04-.07-1.05-.05-2.21-.07-3.47-.07-1.35,0-2.65.02-3.88.07-1.24.05-2.39.07-3.46.07-.14,0-.21-.14-.21-.42s.07-.42.21-.42c2.05,0,3.62-.65,4.69-1.96,1.07-1.31,1.61-3.2,1.61-5.67ZM180.2,120.57v36.19l-1.89-2.1v-34.09c0-2.47-.48-4.38-1.44-5.71-.96-1.33-2.37-2-4.23-2-.09,0-.14-.14-.14-.42s.05-.42.14-.42c.98,0,2.01.04,3.08.1,1.07.07,2.24.1,3.5.1s2.4-.04,3.57-.1c1.17-.07,2.24-.1,3.22-.1.14,0,.21.14.21.42s-.07.42-.21.42c-1.87,0-3.3.67-4.31,2-1,1.33-1.5,3.23-1.5,5.71Z"/>
      <path class="d" d="M209.52,156.06c-1.45,0-3.24-.07-5.39-.21-2.15-.14-4.11-.21-5.88-.21-1.68,0-3.27.02-4.76.07-1.49.05-2.82.07-3.99.07-.09,0-.14-.14-.14-.42s.05-.42.14-.42c1.49,0,2.64-.12,3.43-.35.79-.23,1.32-.7,1.58-1.4.26-.7.38-1.73.38-3.08v-32.41c0-1.35-.13-2.37-.38-3.04-.26-.68-.76-1.14-1.5-1.4-.75-.26-1.89-.39-3.43-.39-.09,0-.14-.14-.14-.42s.05-.42.14-.42c1.21,0,2.54.04,3.99.1,1.45.07,3.01.1,4.69.1s3.42-.06,5.35-.17c1.94-.12,3.58-.18,4.93-.18,4.9,0,9.17.93,12.81,2.8,3.64,1.87,6.46,4.41,8.47,7.63,2.01,3.22,3.01,6.84,3.01,10.85,0,3.5-.61,6.66-1.82,9.48-1.21,2.82-2.9,5.23-5.08,7.21-2.17,1.98-4.67,3.51-7.49,4.58-2.82,1.07-5.8,1.61-8.93,1.61ZM208.82,154.66c3.22,0,6.07-.77,8.54-2.31,2.47-1.54,4.42-3.79,5.84-6.75,1.42-2.96,2.14-6.59,2.14-10.88,0-4.01-.65-7.64-1.96-10.89-1.31-3.24-3.16-5.81-5.56-7.7-2.4-1.89-5.26-2.84-8.58-2.84-2.75,0-4.73.26-5.92.77-1.19.51-1.79,1.77-1.79,3.78v31.5c0,1.82.47,3.16,1.4,4.02.93.86,2.89,1.29,5.88,1.29Z"/>
      <path class="d" d="M248.08,150.11c0,1.35.13,2.38.39,3.08.26.7.76,1.17,1.5,1.4.75.23,1.89.35,3.43.35.14,0,.21.14.21.42s-.07.42-.21.42c-1.17,0-2.47-.02-3.92-.07-1.45-.05-3.06-.07-4.83-.07-1.63,0-3.2.02-4.69.07-1.49.05-2.82.07-3.99.07-.14,0-.21-.14-.21-.42s.07-.42.21-.42c1.49,0,2.64-.12,3.43-.35.79-.23,1.32-.7,1.58-1.4.26-.7.39-1.73.39-3.08v-32.41c0-1.35-.13-2.37-.39-3.04-.26-.68-.78-1.14-1.58-1.4-.79-.26-1.94-.39-3.43-.39-.14,0-.21-.14-.21-.42s.07-.42.21-.42c1.17,0,2.5.04,3.99.1,1.49.07,3.06.1,4.69.1,1.77,0,3.4-.04,4.87-.1s2.77-.1,3.88-.1c.14,0,.21.14.21.42s-.07.42-.21.42c-1.49,0-2.62.14-3.39.42-.77.28-1.28.77-1.54,1.47-.26.7-.39,1.73-.39,3.08v32.27Z"/>
      <path class="d" d="M300.07,156.76c0,.14-.12.22-.35.25-.23.02-.4.01-.49-.04l-33.67-39.2c-1.68-1.91-3.11-3.21-4.3-3.89-1.19-.68-2.35-1.02-3.47-1.02-.14,0-.21-.14-.21-.42s.07-.42.21-.42c.89,0,1.8.02,2.73.07.93.05,1.8.07,2.59.07,1.4,0,2.67-.02,3.81-.07,1.14-.05,2.02-.07,2.62-.07s1.05.27,1.33.81c.28.54.98,1.48,2.1,2.83l26.53,31.22.56,9.87ZM264.51,147.31v-33.67l1.89.14v33.53c0,2.47.49,4.36,1.47,5.67.98,1.31,2.38,1.96,4.2,1.96.14,0,.21.14.21.42s-.07.42-.21.42c-.98,0-2-.02-3.04-.07-1.05-.05-2.21-.07-3.47-.07-1.35,0-2.65.02-3.88.07-1.24.05-2.39.07-3.46.07-.14,0-.21-.14-.21-.42s.07-.42.21-.42c2.05,0,3.62-.65,4.69-1.96,1.07-1.31,1.61-3.2,1.61-5.67ZM300.07,120.57v36.19l-1.89-2.1v-34.09c0-2.47-.48-4.38-1.44-5.71-.96-1.33-2.37-2-4.23-2-.09,0-.14-.14-.14-.42s.05-.42.14-.42c.98,0,2.01.04,3.08.1,1.07.07,2.24.1,3.5.1s2.4-.04,3.57-.1c1.17-.07,2.24-.1,3.22-.1.14,0,.21.14.21.42s-.07.42-.21.42c-1.87,0-3.3.67-4.31,2-1,1.33-1.5,3.23-1.5,5.71Z"/>
      <path class="d" d="M333.03,156.62c-5.27,0-9.79-.99-13.54-2.97-3.76-1.98-6.63-4.66-8.61-8.02-1.98-3.36-2.97-7.12-2.97-11.27,0-3.45.67-6.59,1.99-9.42,1.33-2.82,3.2-5.25,5.6-7.28,2.4-2.03,5.22-3.6,8.44-4.72,3.22-1.12,6.74-1.68,10.57-1.68,2.1,0,4.26.17,6.48.52,2.22.35,4.02.88,5.43,1.58.42.19.68.38.77.59.09.21.16.55.21,1.02l.84,9.1c0,.09-.12.17-.35.25-.23.07-.4.01-.49-.18-1.4-3.5-3.5-6.23-6.3-8.19-2.8-1.96-6.09-2.94-9.87-2.94-5.23,0-9.19,1.7-11.9,5.11-2.71,3.41-4.06,7.96-4.06,13.65,0,4.67.85,8.78,2.56,12.35,1.7,3.57,4.01,6.35,6.93,8.33,2.92,1.98,6.24,2.98,9.98,2.98,1.96,0,3.52-.21,4.69-.63,1.17-.42,2.02-1.24,2.55-2.45.54-1.21.81-3.01.81-5.39,0-2.24-.14-3.89-.42-4.94-.28-1.05-.92-1.74-1.93-2.06-1-.33-2.65-.49-4.94-.49-.28,0-.42-.19-.42-.56s.12-.56.35-.56c3.13.19,5.97.29,8.54.31,2.57.02,5.25-.03,8.05-.17.23,0,.35.16.35.49s-.12.49-.35.49c-.89-.05-1.54.1-1.96.46-.42.35-.68,1.11-.77,2.27-.09,1.17-.14,2.99-.14,5.46,0,1.54.05,2.68.14,3.43.09.75.18,1.29.25,1.65.07.35.1.71.1,1.08,0,.28-.06.47-.17.56-.12.09-.34.19-.67.28-2.52.56-5.15,1.03-7.88,1.4-2.73.37-5.35.56-7.88.56Z"/>
      <path class="d" d="M361.52,156.55c-1.17,0-2.1-.34-2.8-1.02-.7-.68-1.05-1.62-1.05-2.83,0-1.07.35-1.95,1.05-2.62.7-.68,1.63-1.02,2.8-1.02s2.15.34,2.8,1.02c.65.68.98,1.55.98,2.62,0,1.21-.33,2.16-.98,2.83-.65.68-1.59,1.02-2.8,1.02Z"/>
    </g>
  </g>
</svg>