<?xml version="1.0" encoding="UTF-8"?>
<svg id="Layer_1" data-name="Layer 1" xmlns="http://www.w3.org/2000/svg" viewBox="0 0 2000 324.62">
  <defs>
    <style>
      .cls-1 {
        fill: #fff;
        stroke-width: 0px;
      }
    </style>
  </defs>
  <path class="cls-1" d="M765.23,188.74v24.59h-150.82c3.28,38.12,25,56.56,69.26,57.38,21.72,0,42.63-4.1,60.25-12.29l8.61,34.84c-21.32,10.66-45.08,15.98-68.85,15.98-68.85,0-115.57-40.16-115.57-106.14,0-56.14,38.94-106.14,101.64-106.97,55.74,0,91.8,32.38,95.49,92.62ZM616.47,179.73h102.45c-2.05-30.33-22.13-45.08-47.95-45.08-29.5,0-48.36,18.44-54.5,45.08Z"/>
  <path class="cls-1" d="M811.93,257.6c19.26,6.96,38.93,12.29,58.61,12.29s37.29-7.38,37.29-24.59c0-12.71-8.19-20.9-38.11-27.87-38.94-9.02-65.57-27.46-65.57-59.43,0-41.39,36.88-61.88,77.05-61.88,23.36,0,45.49,6.15,65.57,14.76l-8.6,36.47c-18.04-6.96-36.88-12.29-55.33-12.29-17.21,0-32.79,7.79-32.79,22.95,0,10.66,7.79,19.26,36.07,25.41,41.8,9.02,67.21,27.05,67.21,61.06,0,43.85-38.94,64.35-80.74,64.35-24.18,0-47.95-5.33-69.67-13.53l9.02-37.7Z"/>
  <path class="cls-1" d="M1186.9,188.74v24.59h-150.82c3.28,38.12,25,56.56,69.26,57.38,21.72,0,42.63-4.1,60.25-12.29l8.61,34.84c-21.32,10.66-45.08,15.98-68.85,15.98-68.85,0-115.57-40.16-115.57-106.14,0-56.14,38.94-106.14,101.64-106.97,55.74,0,91.8,32.38,95.49,92.62ZM1038.13,179.73h102.45c-2.05-30.33-22.13-45.08-47.95-45.08-29.5,0-48.36,18.44-54.5,45.08Z"/>
  <path class="cls-1" d="M1233.6,100.22h45.9v25l2.46.82c14.76-17.62,39.35-29.92,71.72-29.92,40.57,0,74.18,29.1,74.18,86.07v122.95h-45.91v-121.31c0-34.43-20.08-49.18-44.67-49.18s-45.08,9.02-57.78,27.86v142.62h-45.9V100.22Z"/>
  <path class="cls-1" d="M1576.19,270.71c15.98,0,30.74-2.05,43.03-9.43l9.84,36.48c-17.62,9.02-34.02,11.47-52.87,11.47-59.83,0-107.38-47.13-107.38-106.56s47.54-106.56,107.38-106.56c18.85,0,35.24,2.05,52.87,11.07l-9.84,36.07c-10.66-4.51-24.59-8.6-43.03-8.6-34.84,0-63.11,29.91-63.11,68.03s28.27,68.03,63.11,68.03Z"/>
  <path class="cls-1" d="M1672.48,100.22h45.9v204.91h-45.9V100.22Z"/>
  <path class="cls-1" d="M1931.88,115.39l2.05-.82v-14.35h45.9v204.91h-45.9v-20.9l-2.46-.82c-13.11,15.16-35.66,25.82-63.52,25.82-54.91,0-98.77-47.13-98.77-106.56s45.49-106.56,102.87-106.56c27.46,0,46.31,7.79,59.83,19.26ZM1933.93,239.57v-87.71c-13.93-10.66-33.61-17.21-56.15-17.21-34.43,0-62.7,29.5-62.7,68.03s28.27,68.03,62.7,68.03c22.95,0,44.26-8.6,56.15-31.14Z"/>
  <circle class="cls-1" cx="1695.22" cy="38.54" r="23.16"/>
  <path class="cls-1" d="M472.25,205.61c-7.5-23.85-15-47.71-22.5-71.56-2.87-9.13-12.72-15.77-22.4-12.72-23.85,7.5-47.71,15-71.56,22.5-22.29,7.01-12.77,42.19,9.68,35.13,9.84-3.09,19.68-6.19,29.51-9.28-13.2,39.39-41.39,69.11-80.56,86.87-46.23,20.97-97.79,17.43-127.08-19.55,61.88-12.01,139.42-54.71,153.26-121.07C359.06,27.35,257.47,6.81,196.51,40.34c-56.62,31.15-78.17,101.2-64.36,162.34-35.65-5.47-65.2-26.99-76.21-70.26-5.78-22.7-40.92-13.08-35.13,9.68,16.18,63.57,65.8,96.53,125.21,98.37,5.78,10.9,12.8,21.12,21.37,30.13,82.96,87.2,222.33,10.81,260.28-85.35,3.15,10.01,6.3,20.02,9.45,30.04,7.01,22.29,42.19,12.77,35.13-9.68ZM198.11,83.19c22.32-19.19,70.71-36.98,96.1-13.39,53.54,49.74-55.41,114.29-91.85,125.94-10.76,3.44-21.62,5.81-32.35,7.15-12.27-40.55-5.13-91.13,28.09-119.7Z"/>
</svg>